<?xml version="1.0" encoding="UTF-8"?>
<svg version="1.1" xmlns="http://www.w3.org/2000/svg" width="494" height="494">
<path d="M0 0 C0.96627319 0.00054382 1.93254639 0.00108765 2.92810059 0.00164795 C18.83357776 0.04267698 34.0935703 1.00561098 49.6875 4.375 C50.71665527 4.59462402 51.74581055 4.81424805 52.80615234 5.04052734 C59.83652267 6.58377937 66.77485043 8.37092287 73.6875 10.375 C74.51701172 10.61524902 75.34652344 10.85549805 76.20117188 11.10302734 C97.9825908 17.62597052 120.08611636 28.31435473 138.6875 41.375 C139.4417627 41.90061523 140.19602539 42.42623047 140.97314453 42.96777344 C150.54493817 49.69161806 159.58822703 56.71898611 168.0234375 64.828125 C170.1482255 66.85944726 172.2913944 68.76409409 174.5625 70.625 C177.64645108 73.22519405 180.2248591 76.1353977 182.828125 79.2109375 C184.07545401 80.66266076 185.3578413 82.08492838 186.671875 83.4765625 C215.98089742 114.60402792 234.63522272 156.16932513 243.4375 197.625 C243.63625732 198.55795898 243.83501465 199.49091797 244.03979492 200.45214844 C247.1677478 215.90286807 248.09590635 230.96626721 248.0625 246.6875 C248.06168427 248.13690979 248.06168427 248.13690979 248.06085205 249.61560059 C248.01982302 265.52107776 247.05688902 280.7810703 243.6875 296.375 C243.46787598 297.40415527 243.24825195 298.43331055 243.02197266 299.49365234 C241.47872063 306.52402267 239.69157713 313.46235043 237.6875 320.375 C237.44725098 321.20451172 237.20700195 322.03402344 236.95947266 322.88867188 C230.43652948 344.6700908 219.74814527 366.77361636 206.6875 385.375 C206.16188477 386.1292627 205.63626953 386.88352539 205.09472656 387.66064453 C198.37088194 397.23243817 191.34351389 406.27572703 183.234375 414.7109375 C181.20305274 416.8357255 179.29840591 418.9788944 177.4375 421.25 C174.83730595 424.33395108 171.9271023 426.9123591 168.8515625 429.515625 C167.39983924 430.76295401 165.97757162 432.0453413 164.5859375 433.359375 C133.45847208 462.66839742 91.89317487 481.32272272 50.4375 490.125 C49.50454102 490.32375732 48.57158203 490.52251465 47.61035156 490.72729492 C32.15963193 493.8552478 17.09623279 494.78340635 1.375 494.75 C0.40872681 494.74945618 -0.55754639 494.74891235 -1.55310059 494.74835205 C-17.45857776 494.70732302 -32.7185703 493.74438902 -48.3125 490.375 C-49.34165527 490.15537598 -50.37081055 489.93575195 -51.43115234 489.70947266 C-58.46152267 488.16622063 -65.39985043 486.37907713 -72.3125 484.375 C-73.55676758 484.01462646 -73.55676758 484.01462646 -74.82617188 483.64697266 C-96.6075908 477.12402948 -118.71111636 466.43564527 -137.3125 453.375 C-138.0667627 452.84938477 -138.82102539 452.32376953 -139.59814453 451.78222656 C-149.16993817 445.05838194 -158.21322703 438.03101389 -166.6484375 429.921875 C-168.7732255 427.89055274 -170.9163944 425.98590591 -173.1875 424.125 C-176.27145108 421.52480595 -178.8498591 418.6146023 -181.453125 415.5390625 C-182.70045401 414.08733924 -183.9828413 412.66507162 -185.296875 411.2734375 C-214.60589742 380.14597208 -233.26022272 338.58067487 -242.0625 297.125 C-242.26125732 296.19204102 -242.46001465 295.25908203 -242.66479492 294.29785156 C-245.7927478 278.84713193 -246.72090635 263.78373279 -246.6875 248.0625 C-246.68695618 247.09622681 -246.68641235 246.12995361 -246.68585205 245.13439941 C-246.64482302 229.22892224 -245.68188902 213.9689297 -242.3125 198.375 C-242.09287598 197.34584473 -241.87325195 196.31668945 -241.64697266 195.25634766 C-240.10372063 188.22597733 -238.31657713 181.28764957 -236.3125 174.375 C-236.07225098 173.54548828 -235.83200195 172.71597656 -235.58447266 171.86132812 C-229.06152948 150.0799092 -218.37314527 127.97638364 -205.3125 109.375 C-204.78688477 108.6207373 -204.26126953 107.86647461 -203.71972656 107.08935547 C-196.99588194 97.51756183 -189.96851389 88.47427297 -181.859375 80.0390625 C-179.82805274 77.9142745 -177.92340591 75.7711056 -176.0625 73.5 C-173.46230595 70.41604892 -170.5521023 67.8376409 -167.4765625 65.234375 C-166.02483924 63.98704599 -164.60257162 62.7046587 -163.2109375 61.390625 C-132.08347208 32.08160258 -90.51817487 13.42727728 -49.0625 4.625 C-47.66306152 4.32686401 -47.66306152 4.32686401 -46.23535156 4.02270508 C-30.78463193 0.8947522 -15.72123279 -0.03340635 0 0 Z " fill="#000000" transform="translate(246.3125,-0.375)"/>
<path d="M0 0 C11.55 0 23.1 0 35 0 C41.0387451 6.0387451 46.41654941 11.52969847 51.66796875 18.10546875 C53.69635919 20.62311919 55.77419656 23.08669785 57.8840332 25.53613281 C64.31379963 33.01511761 70.31163316 40.79145768 76.24365234 48.66845703 C78.07057742 51.09369118 79.90430351 53.51368971 81.73828125 55.93359375 C95.78819045 74.51816778 109.07752715 93.61629072 122 113 C122.33 75.71 122.66 38.42 123 0 C137.19 0 151.38 0 166 0 C166 64.02 166 128.04 166 194 C153.79 194 141.58 194 129 194 C117.89766296 179.33653598 117.89766296 179.33653598 115.359375 172.8359375 C112.50343434 165.89309081 108.99161483 159.75115638 104.8125 153.5 C103.67453987 151.7364775 102.53780721 149.9721623 101.40234375 148.20703125 C100.27003711 146.47017417 99.13590739 144.73450432 98 143 C97.12432373 141.66267822 97.12432373 141.66267822 96.23095703 140.29833984 C85.37995369 123.78053693 74.21980386 107.53847481 62 92 C61.05984422 90.80082171 60.11974168 89.60160169 59.1796875 88.40234375 C57.3687672 86.09406876 55.55472675 83.7883033 53.73828125 81.484375 C50.47715007 77.33469025 47.24023758 73.16601975 44 69 C43.67 110.25 43.34 151.5 43 194 C28.81 194 14.62 194 0 194 C0 129.98 0 65.96 0 0 Z " fill="#FCFCFC" transform="translate(130,152)"/>
<path d="M0 0 C5.72108485 3.609275 10.34348866 8.96569402 12.328125 15.46875 C13.17557349 23.62790522 13.20154812 31.58298643 8.328125 38.46875 C2.94701723 44.55225901 -2.66743787 47.89699788 -10.71484375 48.81640625 C-19.3597761 49.21166107 -26.01268832 47.63392728 -32.55078125 41.7890625 C-38.79884599 35.01405254 -39.05706005 27.97867904 -38.92578125 19.04296875 C-38.45741396 12.44979845 -36.04242144 8.4123576 -31.671875 3.46875 C-21.74174372 -3.42551283 -11.13013215 -5.02651129 0 0 Z " fill="#FCFCFC" transform="translate(365.671875,300.53125)"/>
</svg>
